<svg width="16" height="16" viewBox="0 0 16 16" fill="none" xmlns="http://www.w3.org/2000/svg">
<g clip-path="url(#clip0_447_15779)">
<path d="M14.1096 5.4544C14.0168 5.5264 12.3784 6.4496 12.3784 8.5024C12.3784 10.8768 14.4632 11.7168 14.5256 11.7376C14.516 11.7888 14.1944 12.888 13.4264 14.008C12.7416 14.9936 12.0264 15.9776 10.9384 15.9776C9.8504 15.9776 9.5704 15.3456 8.3144 15.3456C7.0904 15.3456 6.6552 15.9984 5.66 15.9984C4.6648 15.9984 3.9704 15.0864 3.172 13.9664C2.2472 12.6512 1.5 10.608 1.5 8.6688C1.5 5.5584 3.5224 3.9088 5.5128 3.9088C6.5704 3.9088 7.452 4.6032 8.116 4.6032C8.748 4.6032 9.7336 3.8672 10.9368 3.8672C11.3928 3.8672 13.0312 3.9088 14.1096 5.4544ZM10.3656 2.5504C10.8632 1.96 11.2152 1.1408 11.2152 0.3216C11.2152 0.208 11.2056 0.0928 11.1848 0C10.3752 0.0304 9.412 0.5392 8.8312 1.2128C8.3752 1.7312 7.9496 2.5504 7.9496 3.3808C7.9496 3.5056 7.9704 3.6304 7.98 3.6704C8.0312 3.68 8.1144 3.6912 8.1976 3.6912C8.924 3.6912 9.8376 3.2048 10.3656 2.5504Z" fill="white"/>
</g>
<defs>
<clipPath id="clip0_447_15779">
<rect width="13.024" height="16" fill="white" transform="translate(1.5)"/>
</clipPath>
</defs>
</svg>
